<?xml version="1.0" encoding="UTF-8" standalone="no"?>
<svg
   xmlns:dc="http://purl.org/dc/elements/1.1/"
   xmlns:cc="http://creativecommons.org/ns#"
   xmlns:rdf="http://www.w3.org/1999/02/22-rdf-syntax-ns#"
   xmlns:svg="http://www.w3.org/2000/svg"
   xmlns="http://www.w3.org/2000/svg"
   viewBox="0 0 2560 1440"
   height="1440"
   width="2560"
   xml:space="preserve"
   id="svg2"
   version="1.1"><metadata
     id="metadata8"><rdf:RDF><cc:Work
         rdf:about=""><dc:format>image/svg+xml</dc:format><dc:type
           rdf:resource="http://purl.org/dc/dcmitype/StillImage" /></cc:Work></rdf:RDF></metadata><defs
     id="defs6"><clipPath
       id="clipPath20"
       clipPathUnits="userSpaceOnUse"><path
         id="path18"
         d="M 0,0 H 1920 V 1080 H 0 Z" /></clipPath><clipPath
       id="clipPath30"
       clipPathUnits="userSpaceOnUse"><path
         id="path28"
         d="M 0,1080 H 1920 V 0 H 0 Z" /></clipPath><clipPath
       id="clipPath36"
       clipPathUnits="userSpaceOnUse"><path
         id="path34"
         d="M 0,0 H 1920 V 1080 H 0 Z" /></clipPath></defs><g
     transform="matrix(1.3333333,0,0,-1.3333333,0,1440)"
     id="g10"><g
       id="g12" /><g
       id="g14"><g
         clip-path="url(#clipPath20)"
         id="g16"><path
           id="path22"
           style="fill:#171e29;fill-opacity:1;fill-rule:nonzero;stroke:none"
           d="M 0,0 H 1920 V 1080 H 0 Z" /></g></g><g
       id="g24"><g
         clip-path="url(#clipPath30)"
         id="g26"><g
           clip-path="url(#clipPath36)"
           id="g32"><path
             id="path38"
             style="fill:#898b8e;fill-opacity:1;fill-rule:nonzero;stroke:none"
             d="m 670.4854,564.5786 v 12.862 c -10.256,-7.706 -17.247,-19.508 -18.585,-32.97 h -11.905 c -2.096,8.121 -9.447,14.128 -18.221,14.128 -10.403,0 -18.838,-8.435 -18.838,-18.839 0,-10.401 8.435,-18.836 18.838,-18.836 8.774,0 16.125,6.005 18.221,14.126 h 11.905 c 1.338,-13.464 8.329,-25.263 18.585,-32.967 v 12.731 c -5.858,6.629 -9.417,15.337 -9.417,24.882 0,9.546 3.559,18.25 9.417,24.883" /><path
             id="path40"
             style="fill:#f04d4d;fill-opacity:1;fill-rule:nonzero;stroke:none"
             d="m 775.7598,558.5981 c -8.773,0 -16.125,-6.007 -18.22,-14.127 h -12.171 c -2.156,16.965 -15.589,30.381 -32.562,32.506 v 12.946 c 8.152,2.074 14.191,9.439 14.191,18.238 0,10.404 -8.433,18.839 -18.838,18.839 -10.402,0 -18.836,-8.435 -18.836,-18.839 0,-8.75 5.975,-16.086 14.062,-18.204 v -12.98 c -18.543,-2.321 -32.9,-18.11 -32.9,-37.282 0,-19.176 14.357,-34.963 32.9,-37.285 v -12.614 c -8.087,-2.118 -14.062,-9.454 -14.062,-18.204 0,-10.405 8.434,-18.839 18.836,-18.839 10.405,0 18.838,8.434 18.838,18.839 0,8.798 -6.039,16.162 -14.191,18.236 v 12.582 c 17.016,2.131 30.482,15.613 32.583,32.64 h 12.15 c 2.095,-8.121 9.447,-14.126 18.22,-14.126 10.406,0 18.839,8.434 18.839,18.835 0,10.405 -8.433,18.839 -18.839,18.839" /><path
             id="path42"
             style="fill:#ffffff;fill-opacity:1;fill-rule:nonzero;stroke:none"
             d="m 889.6201,525.126 v -9.77 c -3.545,-1.843 -7.153,-3.248 -10.827,-4.21 -3.674,-0.965 -7.311,-1.452 -10.912,-1.452 -3.458,0 -6.758,0.453 -9.898,1.364 -3.14,0.906 -6.108,2.252 -8.903,4.039 -4.494,2.943 -7.988,6.693 -10.481,11.259 -2.492,4.567 -3.738,9.53 -3.738,14.89 0,4.062 0.821,8.002 2.463,11.819 1.643,3.82 3.977,7.151 7.002,10.005 3.227,3.056 6.843,5.339 10.848,6.851 4.005,1.513 8.441,2.269 13.31,2.269 3.401,0 6.772,-0.39 10.115,-1.168 3.341,-0.776 6.842,-2.001 10.502,-3.673 v -9.378 c -3.833,2.076 -7.433,3.61 -10.805,4.603 -3.37,0.994 -6.642,1.49 -9.812,1.49 -7.058,0 -12.892,-2.198 -17.502,-6.591 -4.611,-4.393 -6.916,-9.903 -6.916,-16.531 0,-6.54 2.27,-12.005 6.808,-16.402 4.538,-4.393 10.235,-6.592 17.093,-6.592 3.515,0 7.073,0.592 10.674,1.774 3.602,1.179 7.261,2.98 10.979,5.404" /><path
             id="path44"
             style="fill:#ffffff;fill-opacity:1;fill-rule:nonzero;stroke:none"
             d="m 899.1719,571.2407 h 8.6 v -34.705 c 0,-3.863 0.209,-6.599 0.627,-8.212 0.417,-1.614 1.117,-3.014 2.095,-4.192 1.787,-2.103 3.905,-3.674 6.354,-4.711 2.449,-1.039 5.229,-1.558 8.341,-1.558 5.244,0 9.465,1.353 12.664,4.064 3.197,2.707 4.798,6.281 4.798,10.717 v 38.597 h 8.599 v -38.853 c 0,-6.742 -2.406,-12.211 -7.218,-16.402 -4.811,-4.196 -11.093,-6.291 -18.843,-6.291 -4.581,0 -8.716,0.814 -12.404,2.443 -3.689,1.627 -6.801,4.01 -9.336,7.154 -1.554,1.869 -2.657,3.959 -3.305,6.262 -0.649,2.308 -0.972,5.853 -0.972,10.635 z" /><path
             id="path46"
             style="fill:#ffffff;fill-opacity:1;fill-rule:nonzero;stroke:none"
             d="m 960.8018,515.4873 v 11.41 c 2.736,-3.144 5.352,-5.404 7.844,-6.787 2.491,-1.381 5.15,-2.07 7.973,-2.07 2.996,0 5.36,0.695 7.088,2.093 1.73,1.397 2.594,3.291 2.594,5.681 0,1.96 -0.584,3.683 -1.751,5.165 -1.167,1.485 -3.954,3.625 -8.362,6.419 -6.829,4.408 -11.115,7.823 -12.859,10.242 -1.743,2.42 -2.614,5.304 -2.614,8.643 0,4.697 1.664,8.552 4.991,11.562 3.328,3.013 7.615,4.518 12.859,4.518 2.334,0 4.631,-0.339 6.892,-1.016 2.263,-0.677 4.545,-1.722 6.852,-3.132 v -9.811 c -2.652,2.131 -5.101,3.68 -7.348,4.644 -2.247,0.965 -4.494,1.449 -6.742,1.449 -2.709,0 -4.92,-0.671 -6.634,-2.009 -1.715,-1.34 -2.572,-3.063 -2.572,-5.167 0,-2.994 3.559,-6.712 10.675,-11.148 l 1.297,-0.78 c 5.792,-3.603 9.58,-6.778 11.366,-9.529 1.787,-2.751 2.68,-6.158 2.68,-10.219 0,-4.613 -1.671,-8.422 -5.013,-11.433 -3.343,-3.014 -7.621,-4.518 -12.836,-4.518 -3.257,0 -6.196,0.461 -8.817,1.381 -2.623,0.926 -5.143,2.394 -7.563,4.412" /><path
             id="path48"
             style="fill:#ffffff;fill-opacity:1;fill-rule:nonzero;stroke:none"
             d="m 1021.048,510.7764 v 52.599 h -22.2141 v 7.865 h 53.0291 v -7.865 h -22.215 v -52.599 z" /><path
             id="path50"
             style="fill:#ffffff;fill-opacity:1;fill-rule:nonzero;stroke:none"
             d="m 1064.871,540.9419 c 0,-3.085 0.578,-6.023 1.729,-8.814 1.154,-2.797 2.811,-5.273 4.971,-7.436 2.103,-2.162 4.573,-3.826 7.413,-4.992 2.837,-1.166 5.799,-1.752 8.881,-1.752 3.17,0 6.145,0.571 8.924,1.709 2.781,1.141 5.267,2.815 7.456,5.035 2.16,2.163 3.824,4.639 4.992,7.436 1.168,2.791 1.751,5.729 1.751,8.814 0,3.083 -0.578,6.001 -1.729,8.752 -1.154,2.751 -2.854,5.267 -5.101,7.542 -2.16,2.217 -4.639,3.912 -7.434,5.078 -2.794,1.168 -5.747,1.751 -8.859,1.751 -2.996,0 -5.899,-0.591 -8.71,-1.773 -2.808,-1.182 -5.335,-2.866 -7.584,-5.056 -2.16,-2.104 -3.817,-4.565 -4.971,-7.39 -1.151,-2.825 -1.729,-5.79 -1.729,-8.904 m -9.204,0.304 c 0,4.033 0.821,7.952 2.464,11.755 1.641,3.802 3.975,7.16 7.001,10.069 3.082,2.967 6.569,5.23 10.459,6.788 3.889,1.554 7.981,2.332 12.274,2.332 4.379,0 8.535,-0.787 12.469,-2.355 3.933,-1.571 7.396,-3.825 10.394,-6.765 3.14,-3.054 5.503,-6.452 7.087,-10.199 1.585,-3.745 2.377,-7.808 2.377,-12.189 0,-4.117 -0.813,-8.073 -2.441,-11.861 -1.628,-3.789 -3.941,-7.125 -6.937,-10.009 -3.14,-2.993 -6.648,-5.264 -10.524,-6.805 -3.875,-1.541 -8.017,-2.313 -12.425,-2.313 -4.293,0 -8.406,0.793 -12.338,2.379 -3.934,1.584 -7.399,3.828 -10.395,6.739 -3.113,3.029 -5.468,6.443 -7.065,10.244 -1.601,3.804 -2.4,7.866 -2.4,12.19" /><path
             id="path52"
             style="fill:#ffffff;fill-opacity:1;fill-rule:nonzero;stroke:none"
             d="m 1129.831,510.7764 v 60.464 h 7.521 l 21.738,-25.414 21.783,25.414 h 7.521 v -60.464 h -8.386 v 47.195 l -20.918,-24.378 -20.875,24.378 v -47.195 z" /><path
             id="path54"
             style="fill:#ffffff;fill-opacity:1;fill-rule:nonzero;stroke:none"
             d="m 1201.618,571.241 h 8.644 v -60.464 h -8.644 z" /><path
             id="path56"
             style="fill:#ffffff;fill-opacity:1;fill-rule:nonzero;stroke:none"
             d="m 1217.609,510.7764 39.762,52.856 h -36.91 v 7.608 h 51.863 v -0.994 l -39.027,-52.038 h 39.027 v -7.432 z" /><path
             id="path58"
             style="fill:#ffffff;fill-opacity:1;fill-rule:nonzero;stroke:none"
             d="m 1279.887,510.7764 v 60.464 h 36.348 v -7.696 h -27.789 v -18.323 h 27.011 v -7.823 h -27.011 v -18.843 h 28.697 v -7.779 z" /></g></g></g></g></svg>